<svg xmlns="http://www.w3.org/2000/svg" width="42" height="41" viewBox="0 0 42 41">
    <g fill="none" fill-rule="evenodd">
        <path fill="#5981E3" d="M20.69 7.38c-7.207-.001-13.07 5.862-13.071 13.069-.001 7.206 5.862 13.07 13.069 13.07 7.207.001 13.07-5.861 13.07-13.068.001-7.207-5.861-13.07-13.068-13.071m-.002 26.983c-7.672 0-13.913-6.243-13.913-13.914 0-7.672 6.243-13.913 13.915-13.913 7.672 0 13.913 6.243 13.912 13.915 0 7.672-6.242 13.912-13.914 13.912"/>
        <circle cx="20.72" cy="20.4" r="13.84" fill="#5981E3"/>
        <g fill="#FFF">
            <path d="M16.19 15.474c-.16 0-.316-.085-.397-.236L8.36 1.43.926 15.237c-.117.218-.39.3-.609.183-.219-.117-.301-.389-.184-.607L7.964.271c.079-.146.23-.237.397-.237.166 0 .318.091.396.237l7.829 14.544c.118.218.035.489-.184.606-.068.036-.14.053-.212.053" transform="translate(12.32 12.286)"/>
            <path d="M12.83 9.634H3.65c-.249 0-.45-.197-.45-.44s.202-.44.45-.44l9.182.001c.248 0 .449.197.449.44s-.201.44-.45.44" transform="translate(12.32 12.286)"/>
        </g>
        <path fill="#5981E3" d="M4.669 0C7.23 0 9.307 2.077 9.306 4.638c0 2.562-2.076 4.638-4.638 4.638-2.561 0-4.637-2.077-4.637-4.639C.03 2.077 2.108 0 4.669 0M36.71 31.624c2.56 0 4.637 2.076 4.637 4.638 0 2.561-2.077 4.637-4.638 4.637-2.562 0-4.638-2.077-4.638-4.638s2.077-4.637 4.638-4.637M34.814 2.743c1.747 0 3.162 1.416 3.162 3.162 0 1.747-1.416 3.162-3.162 3.162-1.747 0-3.162-1.416-3.162-3.162 0-1.747 1.416-3.162 3.162-3.162M6.564 31.832c1.746 0 3.162 1.416 3.162 3.163 0 1.746-1.416 3.162-3.163 3.161-1.746 0-3.162-1.416-3.162-3.162s1.416-3.162 3.163-3.162"/>
        <path fill="#5981E3" d="M36.708 36.683c-.107 0-.214-.04-.296-.121l-6.416-6.334c-.166-.163-.168-.43-.004-.596.163-.165.43-.167.596-.004l6.416 6.334c.166.163.168.43.004.596-.082.084-.191.125-.3.125M11.084 11.393c-.107 0-.214-.04-.296-.122L4.372 4.938c-.166-.164-.168-.43-.004-.596.163-.166.43-.168.596-.004l6.416 6.333c.166.163.168.43.004.596-.082.084-.19.126-.3.126M6.563 35.416c-.106 0-.212-.04-.294-.12-.167-.162-.171-.429-.009-.596l4.727-4.864c.162-.167.43-.171.596-.01.167.163.171.43.009.597l-4.727 4.865c-.083.085-.192.128-.302.128M30.086 11.192c-.105 0-.211-.04-.293-.12-.167-.161-.171-.428-.01-.595l4.728-4.866c.163-.167.43-.17.596-.008.167.162.17.429.009.596l-4.727 4.865c-.083.085-.193.128-.303.128"/>
    </g>
</svg>
