<svg xmlns="http://www.w3.org/2000/svg" width="182" height="130" viewBox="0 0 182 130">
    <defs>
        <linearGradient id="ul35uwn89a" x1="14.645%" x2="85.355%" y1="14.645%" y2="85.355%">
            <stop offset="0%" stop-color="#6282CD"/>
            <stop offset="100%" stop-color="#6282CD" stop-opacity="0"/>
        </linearGradient>
        <linearGradient id="9xlzlfaijb" x1="49.995%" x2="49.995%" y1="-.004%" y2="99.995%">
            <stop offset="0%" stop-color="#B3F0EF"/>
            <stop offset="100%" stop-color="#6CA7E0"/>
        </linearGradient>
        <linearGradient id="6fyd6z49cc" x1="49.987%" x2="49.987%" y1="71.573%" y2="-44.18%">
            <stop offset=".188%" stop-color="#E7F8FD" stop-opacity="0"/>
            <stop offset="100%" stop-color="#E7F8FD"/>
        </linearGradient>
        <linearGradient id="mak6puhvid" x1="50.019%" x2="50.019%" y1="80.502%" y2="35.434%">
            <stop offset="0%" stop-color="#330C04"/>
            <stop offset="100%" stop-color="#501506"/>
        </linearGradient>
        <linearGradient id="okf0efe34e" x1="49.989%" x2="49.989%" y1="-89.264%" y2="51.344%">
            <stop offset="0%" stop-color="#E7F8FD"/>
            <stop offset="99.81%" stop-color="#E7F8FD" stop-opacity="0"/>
        </linearGradient>
        <linearGradient id="fo3vuhragf" x1="50.019%" x2="50.019%" y1="-77.302%" y2="54.422%">
            <stop offset="0%" stop-color="#E7F8FD"/>
            <stop offset="99.81%" stop-color="#E7F8FD" stop-opacity="0"/>
        </linearGradient>
        <radialGradient id="zsjwri998g" cx="49.999%" cy="-46.876%" r="87.871%" fx="49.999%" fy="-46.876%">
            <stop offset="0%" stop-color="#E7F8FD"/>
            <stop offset="99.81%" stop-color="#E7F8FD" stop-opacity="0"/>
        </radialGradient>
    </defs>
    <g fill="none" fill-rule="evenodd">
        <g transform="translate(26)">
            <circle cx="65" cy="65" r="65" fill="#56C1C3"/>
            <circle cx="65" cy="65" r="65" fill="url(#ul35uwn89a)"/>
        </g>
        <g>
            <path fill="url(#9xlzlfaijb)" d="M96.15 80.2H3.89c-1.66 0-3-1.34-3-3V3.06c0-1.66 1.34-3 3-3h92.27c1.66 0 3 1.34 3 3V77.2c-.01 1.65-1.35 3-3.01 3z" transform="translate(0 26)"/>
            <path stroke="#FDFFFF" stroke-width=".75" d="M96.15 80.2H3.89c-1.66 0-3-1.34-3-3V3.06c0-1.66 1.34-3 3-3h92.27c1.66 0 3 1.34 3 3V77.2c-.01 1.65-1.35 3-3.01 3z" transform="translate(0 26)"/>
        </g>
        <g>
            <path fill="#E7F8FD" d="M76.11 100h-72c-2.21 0-4-1.79-4-4V4c0-2.21 1.79-4 4-4h72c2.21 0 4 1.79 4 4v92c0 2.21-1.79 4-4 4z" transform="translate(10 15)"/>
            <g transform="translate(10 15) translate(18 8)">
                <circle cx="21.35" cy="21.77" r="21" fill="#EC4E22" transform="translate(.759 .405)"/>
                <g>
                    <path d="M3.45 25.3c6.9-.48 11.19 9.47 17.66 9.47 5.04 0 11.55-12.65 20.9-15.58C41 8.53 32.03.19 21.11.19c-11.6 0-21 9.4-21 21 0 1.6.2 3.15.53 4.65.92-.28 1.86-.48 2.81-.54z" transform="translate(1 1)"/>
                    <path fill="url(#6fyd6z49cc)" fill-rule="nonzero" d="M21.11 34.77c-6.47 0-10.76-9.95-17.66-9.47-.95.07-1.89.26-2.8.53 2.12 9.36 10.47 16.35 20.47 16.35 11.6 0 21-9.4 21-21 0-.67-.04-1.34-.1-2-9.36 2.93-15.87 15.59-20.91 15.59z" transform="translate(1 1)"/>
                </g>
                <circle cx="21.35" cy="21.77" r="21" stroke="#FFF" stroke-width=".75" transform="translate(.759 .405)"/>
                <path fill="#56C1C3" d="M42.77 76.52c0-3.69-2.99-6.67-6.67-6.67H8.13c-3.69 0-6.67 2.99-6.67 6.67 0 3.69 2.99 6.67 6.67 6.67H36.1c3.68.01 6.67-2.98 6.67-6.67z"/>
                <path fill="#FFF" d="M33.65 77.52H10.58c-.53 0-.97-.44-.97-.97v-.07c0-.53.44-.97.97-.97h23.07c.53 0 .97.44.97.97v.07c-.01.54-.44.97-.97.97z"/>
            </g>
            <g>
                <path fill="#409393" d="M49.11 2.1h-35c-.55 0-1-.45-1-1s.45-1 1-1h35c.55 0 1 .45 1 1s-.45 1-1 1z" transform="translate(10 15) translate(15 61)"/>
                <path fill="#56C1C3" d="M9.11 2.1h-8c-.55 0-1-.45-1-1s.45-1 1-1h8c.55 0 1 .45 1 1s-.45 1-1 1z" transform="translate(10 15) translate(15 61)"/>
            </g>
            <g>
                <path fill="#409393" d="M49.11 2.12h-35c-.55 0-1-.45-1-1s.45-1 1-1h35c.55 0 1 .45 1 1s-.45 1-1 1z" transform="translate(10 15) translate(15 67)"/>
                <path fill="#56C1C3" d="M9.11 2.12h-8c-.55 0-1-.45-1-1s.45-1 1-1h8c.55 0 1 .45 1 1s-.45 1-1 1z" transform="translate(10 15) translate(15 67)"/>
            </g>
            <g transform="translate(10 15) translate(22 5)">
                <path fill="#3574D3" fill-rule="nonzero" d="M35.77 40.89c-2.26 2.24-4.95 4.05-7.93 5.31-2.97 1.24-6.23 1.93-9.66 1.93-3.42 0-6.68-.69-9.65-1.94-3.04-1.27-5.78-3.13-8.07-5.43.1-.92.2-1.64.3-2.06.38-1.49 1.66-2.64 3.27-2.94l9.93-1.84c-.49.54-.78 1.18-.78 1.86 0 .1.03.19.04.29-.01.1-.04.19-.04.29 0 1.93 2.24 3.5 5 3.5s5-1.57 5-3.5c0-.1-.03-.19-.04-.29.01-.1.04-.19.04-.29 0-.66-.28-1.28-.75-1.81l9.69 1.79c1.62.3 2.9 1.45 3.28 2.94.1.43.23 1.21.37 2.19z"/>
                <path fill="#184587" fill-rule="nonzero" d="M18.11 39.29c-2.62 0-4.75-1.42-4.96-3.21-.01.1-.04.19-.04.29 0 1.93 2.24 3.5 5 3.5s5-1.57 5-3.5c0-.1-.03-.19-.04-.29-.21 1.79-2.34 3.21-4.96 3.21z"/>
                <path fill="#64A0F9" fill-rule="nonzero" d="M13.15 36.07c.21 1.8 2.34 3.21 4.96 3.21s4.75-1.42 4.96-3.21c.01-.1.04-.19.04-.29 0-.67-.28-1.29-.75-1.82-.88-1.01-2.45-1.68-4.25-1.68-1.78 0-3.34.66-4.22 1.64-.49.54-.78 1.17-.78 1.86 0 .11.03.2.04.29z"/>
                <circle cx="18.11" cy="6.06" r="6.04" fill="url(#mak6puhvid)"/>
                <path fill="#842F15" d="M18.994 27.669h-1.766c-1.165 0-2.114 1.155-2.114 2.574v4.453c0 1.128.592 2.17 1.494 2.462.986.32 1.973.31 2.95 0 .92-.291 1.56-1.325 1.56-2.49v-4.425c-.01-1.428-.95-2.574-2.124-2.574z"/>
                <ellipse cx="18.11" cy="19.01" fill="#561607" rx="11.91" ry="10.42"/>
                <path fill="url(#okf0efe34e)" d="M18.11 11.59c6 0 10.94 3.88 11.78 8.92.08-.49.14-.99.14-1.5 0-5.75-5.33-10.42-11.91-10.42S6.2 13.26 6.2 19.01c0 .51.06 1.01.14 1.5.83-5.04 5.78-8.92 11.77-8.92z" opacity=".5"/>
                <path fill="#A54925" d="M22.58 18.155c-2.907-.501-5.878-.55-8.928-.012-.948.167-1.612.978-1.533 1.882l.861 9.715c.063.731.609 1.356 1.36 1.555 2.496.656 5.001.588 7.498-.025.774-.186 1.343-.811 1.407-1.567l.86-9.672c.08-.897-.584-1.715-1.524-1.876z"/>
                <path fill="url(#fo3vuhragf)" d="M13.65 19.44c3.05-.54 6.03-.49 8.93.01.73.13 1.28.64 1.46 1.28l.06-.7c.08-.9-.58-1.72-1.52-1.88-2.91-.5-5.88-.55-8.93-.01-.94.17-1.61.98-1.53 1.88l.06.7c.19-.64.74-1.15 1.47-1.28z" opacity=".5"/>
                <path fill="#E06E4B" d="M20.816 26.73c.169 0 .312.136.295.287-.168 1.289-1.448 2.72-2.998 2.72-1.55 0-2.83-1.431-2.998-2.72-.017-.151.126-.286.294-.286h5.407z"/>
                <path fill="#6B1B09" d="M20.816 26.73c.169 0 .312.11.295.237-.168 1.07-1.448 1.903-2.998 1.903-1.55 0-2.83-.834-2.998-1.903-.017-.127.126-.236.294-.236h5.407z"/>
                <path fill="#FFA98F" d="M20.257 26.732c0 .464-.959 1.285-2.142 1.285-1.183 0-2.142-.821-2.142-1.285h4.284z"/>
                <g fill="#561607">
                    <path d="M1.47.72c0-.16-.06-.31-.17-.42C1.19.19 1.04.13.88.13.72.13.57.19.46.3.35.41.29.56.29.72v.82c0 .16.06.31.17.42.11.11.26.17.42.17.16 0 .31-.06.42-.17.11-.11.17-.26.17-.42V.72zM7.264.72c0-.16-.06-.31-.17-.42-.11-.11-.26-.17-.42-.17-.16 0-.31.06-.42.17-.11.11-.17.26-.17.42v.82c0 .16.06.31.17.42.11.11.26.17.42.17.16 0 .31-.06.42-.17.11-.11.17-.26.17-.42V.72z" transform="translate(14.343 22)"/>
                </g>
            </g>
            <path stroke="#FDFFFF" d="M76.11 100h-72c-2.21 0-4-1.79-4-4V4c0-2.21 1.79-4 4-4h72c2.21 0 4 1.79 4 4v92c0 2.21-1.79 4-4 4z" transform="translate(10 15)"/>
            <path fill="#8C3115" d="M40.11 30.44c-.29 0-.53-.24-.53-.53v-2.43c0-.29.24-.53.53-.53.29 0 .53.24.53.53v2.43c.01.29-.23.53-.53.53z" transform="translate(10 15)"/>
        </g>
        <g transform="translate(86 29)">
            <circle cx="35.23" cy="35.59" r="35" fill="#3574D3" transform="translate(24.759 .405)"/>
            <circle cx="35.23" cy="35.59" r="35" stroke="#FDFFFF" transform="translate(24.759 .405)"/>
            <path stroke="#000" stroke-linecap="round" stroke-linejoin="round" stroke-width="5" d="M40.32 0.24L13.99 48.12 0.18 22.77" opacity=".2" transform="translate(46 6)"/>
            <path stroke="#B3F0EF" stroke-linecap="round" stroke-linejoin="round" stroke-width="5" d="M86.32 1.24L59.99 49.12 46.18 23.77"/>
            <path stroke="#FDFFFF" d="M25.01 37.18L4.11 37.18"/>
            <circle cx="35.23" cy="35.59" r="35" fill="url(#zsjwri998g)" transform="translate(24.759 .405)"/>
            <circle cx="4.11" cy="37.18" r="4" fill="#FDFFFF"/>
            <circle cx="25.01" cy="37.18" r="4" fill="#FDFFFF"/>
        </g>
    </g>
</svg>
