<svg width="268" height="140" viewBox="0 0 268 140" fill="none" xmlns="http://www.w3.org/2000/svg">
<g transform="translate(69,5)" clip-path="url(#clipPath179)">
<path d="M64.7198 130C100.464 130 129.44 101.006 129.44 65.2406C129.44 29.475 100.464 0.481201 64.7198 0.481201C28.976 0.481201 0 29.475 0 65.2406C0 101.006 28.976 130 64.7198 130Z" fill="url(#paint0_linear)"/>
<path opacity="0.6" fill-rule="evenodd" clip-rule="evenodd" d="M10.2132 22.9579H102.034C103.331 22.9579 104.382 24.0091 104.382 25.3073V95.5667C104.382 96.8649 103.331 97.9161 102.034 97.9161H10.2132C8.91581 97.9161 7.86524 96.8649 7.86524 95.5667V25.3073C7.86223 24.0121 8.91581 22.9579 10.2132 22.9579Z" fill="white"/>
<path fill-rule="evenodd" clip-rule="evenodd" d="M98.6726 29.7747H13.5405C12.806 29.7747 12.21 29.1783 12.21 28.4434C12.21 27.7084 12.806 27.1121 13.5405 27.1121H98.6726C99.4071 27.1121 100.003 27.7084 100.003 28.4434C100.003 29.1783 99.4071 29.7747 98.6726 29.7747Z" fill="white"/>
<path fill-rule="evenodd" clip-rule="evenodd" d="M17.0225 77.594C17.0225 77.594 24.5239 70.2175 32.0525 75.9494C39.5811 81.6814 47.1247 83.4946 54.3613 76.1844C61.5978 68.8741 64.6923 62.4373 78.0788 71.9554V86.1724H17.0225V77.594Z" fill="url(#paint1_linear)"/>
<path d="M17.0225 77.594C17.0225 77.594 24.5239 70.2175 32.0525 75.9494C39.5811 81.6814 47.1247 83.4946 54.3613 76.1844C61.5978 68.8741 64.6923 62.4373 78.0788 71.9554" stroke="#8AA4E1" stroke-width="1.86868" stroke-miterlimit="10"/>
<path fill-rule="evenodd" clip-rule="evenodd" d="M11.6229 87.4617H79.2566C79.5155 87.4617 79.7262 87.6725 79.7262 87.9316C79.7262 88.1906 79.5155 88.4014 79.2566 88.4014H11.6229C11.364 88.4014 11.1533 88.1906 11.1533 87.9316C11.1533 87.6725 11.364 87.4617 11.6229 87.4617Z" fill="white"/>
<path fill-rule="evenodd" clip-rule="evenodd" d="M14.4406 69.8383C14.6996 69.8383 14.9105 70.0492 14.9105 70.3082V90.986C14.9105 91.2451 14.6996 91.4559 14.4406 91.4559C14.1815 91.4559 13.9707 91.2451 13.9707 90.986V70.3082C13.9707 70.0492 14.1815 69.8383 14.4406 69.8383Z" fill="white"/>
<path fill-rule="evenodd" clip-rule="evenodd" d="M46.3718 45.8024C45.7577 43.3023 44.5717 41.0252 42.9582 39.1216C41.3989 37.2782 39.4393 35.7812 37.2147 34.7662C35.1407 33.8204 32.8349 33.2963 30.4056 33.2963C21.3268 33.2963 13.9668 40.6608 13.9668 49.7451C13.9668 52.0855 14.4545 54.3114 15.3364 56.3235C17.8741 62.1308 23.6657 66.194 30.4056 66.194C37.9613 66.194 44.3279 61.0916 46.2514 54.1428C46.6397 52.7422 46.8444 51.2692 46.8444 49.7451C46.8475 48.3837 46.6819 47.0644 46.3718 45.8024Z" fill="#3574D3"/>
<path fill-rule="evenodd" clip-rule="evenodd" d="M73.8939 42.1119H53.9331C53.7043 42.1119 53.4996 42.2022 53.3521 42.3528C53.2046 42.5004 53.1113 42.7053 53.1113 42.9342C53.1113 43.389 53.4786 43.7565 53.9331 43.7565H73.8939C74.1227 43.7565 74.3274 43.6661 74.4749 43.5155C74.6254 43.3679 74.7157 43.1631 74.7157 42.9342C74.7157 42.4793 74.3484 42.1119 73.8939 42.1119Z" fill="white"/>
<path fill-rule="evenodd" clip-rule="evenodd" d="M73.892 46.8103H53.9312C53.7024 46.8103 53.4977 46.9007 53.3502 47.0513C53.2027 47.1989 53.1094 47.4037 53.1094 47.6326C53.1094 48.0874 53.4766 48.4549 53.9312 48.4549H73.892C74.1207 48.4549 74.3254 48.3645 74.4729 48.2139C74.6234 48.0663 74.7137 47.8615 74.7137 47.6326C74.7137 47.1778 74.3465 46.8103 73.892 46.8103Z" fill="white"/>
<path fill-rule="evenodd" clip-rule="evenodd" d="M73.892 51.5077H53.9312C53.7024 51.5077 53.4977 51.5981 53.3502 51.7487C53.2027 51.8962 53.1094 52.1011 53.1094 52.33C53.1094 52.7848 53.4766 53.1523 53.9312 53.1523H73.892C74.1207 53.1523 74.3254 53.0619 74.4729 52.9113C74.6234 52.7637 74.7137 52.5589 74.7137 52.33C74.7137 51.8782 74.3465 51.5077 73.892 51.5077Z" fill="white"/>
<path fill-rule="evenodd" clip-rule="evenodd" d="M64.5001 56.2073H53.9312C53.7024 56.2073 53.4977 56.2976 53.3502 56.4482C53.2027 56.5958 53.1094 56.8007 53.1094 57.0296C53.1094 57.4844 53.4766 57.8519 53.9312 57.8519H64.5001C64.7288 57.8519 64.9335 57.7615 65.081 57.6109C65.2315 57.4633 65.3218 57.2585 65.3218 57.0296C65.3218 56.5778 64.9516 56.2073 64.5001 56.2073Z" fill="white"/>
<path fill-rule="evenodd" clip-rule="evenodd" d="M46.847 49.7409C46.847 51.265 46.6393 52.7379 46.254 54.1385L30.4082 49.7409L42.9608 39.1204C44.5713 41.024 45.7573 43.3011 46.3744 45.8011C46.6815 47.0632 46.847 48.3825 46.847 49.7409Z" fill="#285BA5"/>
<path fill-rule="evenodd" clip-rule="evenodd" d="M46.3714 45.8008L30.4082 49.7405L37.2173 34.7615C39.4419 35.7766 41.4015 37.2736 42.9608 39.117C44.5713 41.0236 45.7573 43.3007 46.3714 45.8008Z" fill="#E7F2FD"/>
<path fill-rule="evenodd" clip-rule="evenodd" d="M37.2147 34.7661L30.4056 49.7451L15.3364 56.3234C14.4545 54.3084 13.9668 52.0855 13.9668 49.7451C13.9668 40.6607 21.3268 33.2962 30.4056 33.2962C32.8349 33.2932 35.1437 33.8203 37.2147 34.7661Z" fill="#6CA7E0"/>
<path opacity="0.5" fill-rule="evenodd" clip-rule="evenodd" d="M92.3049 80.7177H87.9943C87.3471 80.7177 86.8203 80.1906 86.8203 79.543V42.1542C86.8203 41.5066 87.3471 40.9795 87.9943 40.9795H92.3049C92.9521 40.9795 93.4789 41.5066 93.4789 42.1542V79.543C93.4789 80.1906 92.9521 80.7177 92.3049 80.7177Z" fill="#ECF0F8"/>
<path fill-rule="evenodd" clip-rule="evenodd" d="M46.3718 45.8023C45.7577 43.3023 44.5717 41.0252 42.9582 39.1215C41.3989 37.2782 39.4393 35.7812 37.2147 34.7661C35.1407 33.8203 32.8349 33.2962 30.4056 33.2962C21.3268 33.2962 13.9668 40.6607 13.9668 49.7451C13.9668 52.0855 14.4545 54.3114 15.3364 56.3234C17.8741 62.1307 23.6657 66.194 30.4056 66.194C37.9613 66.194 44.3279 61.0915 46.2514 54.1427C46.6397 52.7421 46.8444 51.2692 46.8444 49.7451C46.8475 48.3836 46.6819 47.0643 46.3718 45.8023Z" stroke="white" stroke-width="0.93434" stroke-miterlimit="10"/>
<path opacity="0.6" fill-rule="evenodd" clip-rule="evenodd" d="M4.34309 14.0301H20.0775C21.3749 14.0301 22.4255 15.0813 22.4255 16.3795V29.5392C22.4255 30.8374 21.3749 31.8886 20.0775 31.8886H4.34309C3.04569 31.8886 1.99512 30.8374 1.99512 29.5392V16.3795C1.99512 15.0813 3.04569 14.0301 4.34309 14.0301Z" fill="#BBCCF3"/>
<path opacity="0.5" fill-rule="evenodd" clip-rule="evenodd" d="M70.2122 103.793H85.9467C87.2441 103.793 88.2947 104.844 88.2947 106.142V119.302C88.2947 120.6 87.2441 121.651 85.9467 121.651H70.2122C68.9148 121.651 67.8643 120.6 67.8643 119.302V106.142C67.8643 104.844 68.9148 103.793 70.2122 103.793Z" fill="#ECF0F8"/>
<path opacity="0.5" fill-rule="evenodd" clip-rule="evenodd" d="M36.5319 7.01837H46.4747C47.2934 7.01837 47.9587 7.68404 47.9587 8.50332V16.8196C47.9587 17.6389 47.2934 18.3046 46.4747 18.3046H36.5319C35.7131 18.3046 35.0479 17.6389 35.0479 16.8196V8.50332C35.0479 7.68404 35.7131 7.01837 36.5319 7.01837Z" fill="#ECF0F8"/>
<path opacity="0.5" fill-rule="evenodd" clip-rule="evenodd" d="M27.9586 0H37.9014C38.7202 0 39.3855 0.665666 39.3855 1.48495V9.80125C39.3855 10.6205 38.7202 11.2862 37.9014 11.2862H27.9586C27.1399 11.2862 26.4746 10.6205 26.4746 9.80125V1.48495C26.4746 0.665666 27.1369 0 27.9586 0Z" fill="#ECF0F8"/>
<path opacity="0.6" fill-rule="evenodd" clip-rule="evenodd" d="M4.34309 14.0301H20.0775C21.3749 14.0301 22.4255 15.0813 22.4255 16.3795V29.5392C22.4255 30.8374 21.3749 31.8886 20.0775 31.8886H4.34309C3.04569 31.8886 1.99512 30.8374 1.99512 29.5392V16.3795C1.99512 15.0813 3.04569 14.0301 4.34309 14.0301Z" stroke="white" stroke-width="0.93434" stroke-miterlimit="10"/>
<path opacity="0.5" fill-rule="evenodd" clip-rule="evenodd" d="M70.2122 103.793H85.9467C87.2441 103.793 88.2947 104.844 88.2947 106.142V119.302C88.2947 120.6 87.2441 121.651 85.9467 121.651H70.2122C68.9148 121.651 67.8643 120.6 67.8643 119.302V106.142C67.8643 104.844 68.9148 103.793 70.2122 103.793Z" stroke="white" stroke-width="0.93434" stroke-miterlimit="10"/>
<path opacity="0.5" fill-rule="evenodd" clip-rule="evenodd" d="M36.5319 7.01837H46.4747C47.2934 7.01837 47.9587 7.68404 47.9587 8.50332V16.8196C47.9587 17.6389 47.2934 18.3046 46.4747 18.3046H36.5319C35.7131 18.3046 35.0479 17.6389 35.0479 16.8196V8.50332C35.0479 7.68404 35.7131 7.01837 36.5319 7.01837Z" stroke="white" stroke-width="0.93434" stroke-miterlimit="10"/>
<path fill-rule="evenodd" clip-rule="evenodd" d="M84.0034 44.919L80.7222 51.7052C80.6139 51.9281 80.7885 52.1841 81.0353 52.163C81.8511 52.0968 83.284 51.9522 83.299 51.7323C83.3201 51.4251 84.0034 44.919 84.0034 44.919Z" fill="#F2776D"/>
<path fill-rule="evenodd" clip-rule="evenodd" d="M82.9111 53.9793L83.2693 55.407C83.3296 55.645 83.5854 55.7775 83.8142 55.6871L86.9057 54.4492C86.9057 54.4492 87.7455 52.4672 87.6101 52.3347C87.4746 52.2022 87.1284 52.0425 86.9057 51.8648C86.6829 51.6871 85.9665 51.8648 85.9665 51.8648L82.9111 53.9793Z" fill="url(#paint2_linear)"/>
<path fill-rule="evenodd" clip-rule="evenodd" d="M108.135 53.7297L99.7784 37.2417C99.7513 37.1905 99.7152 37.1483 99.67 37.1152C98.6977 36.4044 87.7555 28.6664 85.6484 36.9285C85.3744 38.0098 85.1065 39.1002 84.8537 40.1785C84.6791 40.9315 84.5075 41.6815 84.345 42.4164C83.1288 47.8532 82.2619 52.6665 81.9879 54.2418C81.9849 54.2569 81.9819 54.2719 81.9789 54.284C81.9368 54.531 82.1535 54.7388 82.3973 54.6936C84.4202 54.299 85.5189 53.8322 86.0186 53.5761C86.133 53.5159 86.2564 53.6334 86.2083 53.7508C85.4347 55.6063 84.6008 56.4406 84.2185 56.7509C84.0981 56.8502 84.053 57.0129 84.1102 57.1605L84.1944 57.3683L85.6424 61.0702C85.9283 61.8051 86.6598 62.269 87.4455 62.2117L92.4123 61.8563C92.5779 61.8442 92.7314 61.9497 92.7796 62.1123L95.6754 72.1515C95.7206 72.3021 95.8621 72.4076 96.0216 72.4076C96.1781 72.4076 96.3949 72.4045 96.6598 72.3985H96.6929C98.5953 72.3624 102.761 72.2238 103.264 71.7027C103.923 71.022 103.725 70.1274 104.206 69.1184C104.685 68.1063 103.412 65.516 104.676 64.1816C105.85 62.9437 107.885 55.0792 108.165 53.9707C108.183 53.8954 108.171 53.8051 108.135 53.7297Z" fill="#FC9C97"/>
<path fill-rule="evenodd" clip-rule="evenodd" d="M108.134 53.7286L99.7773 37.2405C99.7502 37.1893 99.7141 37.1472 99.669 37.114C99.106 36.7014 95.1927 33.9303 91.5925 33.2797C92.6371 37.5297 95.3553 50.1834 91.2343 52.331C88.7599 53.6201 88.0013 58.837 87.7695 62.1894L92.4083 61.8581C92.5738 61.8461 92.7274 61.9515 92.7755 62.1141L95.6714 72.1534C95.7165 72.304 95.858 72.4094 96.0175 72.4094C96.1741 72.4094 96.3908 72.4064 96.6557 72.4003H96.6888C98.5913 72.3642 102.757 72.2256 103.26 71.7046C103.919 71.0238 103.721 70.1292 104.202 69.1202C104.681 68.1082 103.408 65.5178 104.672 64.1834C105.846 62.9455 107.881 55.081 108.161 53.9725C108.182 53.8942 108.17 53.8039 108.134 53.7286Z" fill="#F98A87"/>
<path fill-rule="evenodd" clip-rule="evenodd" d="M96.8178 99.9585C96.8178 99.9585 86.4807 102.239 85.7794 98.7838C85.078 95.329 87.3778 87.085 87.8925 83.7446C88.4073 80.4042 95.1713 83.9795 95.1713 83.9795L96.8178 99.9585Z" fill="white"/>
<path fill-rule="evenodd" clip-rule="evenodd" d="M43.0832 75.136C42.8183 74.4373 41.8761 73.5728 41.2409 73.1842L33.5016 68.4613C33.2277 68.2957 32.8785 68.3198 32.6287 68.5185C32.436 68.6722 32.3427 68.892 32.3427 69.1149C32.3427 69.3408 32.439 69.5667 32.6377 69.7173L38.631 74.4704L29.6034 69.4282C29.2813 69.2475 28.8749 69.3047 28.613 69.5667L27.9056 70.2746L27.731 70.4493C27.418 70.7625 27.4089 71.2625 27.7039 71.5909L33.9833 78.5246L30.0128 76.4373C29.7298 76.2897 29.3776 76.365 29.185 76.624C29.0977 76.7415 29.0525 76.88 29.0525 77.0156C29.0525 77.2023 29.1338 77.3891 29.2873 77.5156L34.6846 82.0518L41.9664 88.868L47.1349 85.8108L43.0832 75.136Z" fill="#FC9C97"/>
<path fill-rule="evenodd" clip-rule="evenodd" d="M125.06 68.9077L124.864 68.4167L118.525 74.5252L106.547 102.254L107.357 106.36L109.172 115.583C115.719 109.815 121.134 102.79 125.045 94.8928C127.155 90.6277 128.829 86.1006 130 81.3777L125.06 68.9077Z" fill="#FF8E85"/>
<path fill-rule="evenodd" clip-rule="evenodd" d="M46.7844 84.7241L62.3984 103.197L81.42 78.9952L89.4031 87.691L89.1683 88.8657L65.818 113.245C63.8614 115.288 60.5592 115.146 58.7892 112.938C54.3551 107.414 46.4743 97.2272 40.8633 87.935L46.7844 84.7241Z" fill="#FC9C97"/>
<path fill-rule="evenodd" clip-rule="evenodd" d="M124.564 82.2141V82.2021C124.57 81.8617 124.576 81.5244 124.582 81.187C124.6 80.3948 124.615 79.6087 124.64 78.8346C124.652 78.4641 124.664 78.1027 124.67 77.7412C124.676 77.5726 124.682 77.4069 124.688 77.2412C124.697 76.931 124.709 76.6298 124.718 76.3286C124.748 75.3978 124.787 74.5093 124.82 73.684C124.829 73.4882 124.838 73.2984 124.847 73.1117C124.856 72.9129 124.865 72.7231 124.874 72.5364V72.5093C124.883 72.3316 124.892 72.1599 124.901 71.9912C124.91 71.8105 124.919 71.6388 124.929 71.4701C124.926 71.4611 124.929 71.452 124.929 71.44C124.938 71.2834 124.944 71.1297 124.953 70.9822C124.956 70.9189 124.959 70.8587 124.962 70.7984C125.004 70.0032 125.04 69.3556 125.064 68.9068C125.091 68.437 125.106 68.1809 125.106 68.1809C125.106 68.1809 107.409 65.2351 100.916 67.2412C94.4229 69.2442 81.4248 78.9912 81.4248 78.9912C81.4248 78.9912 90.7324 89.172 93.1677 95.907C94.6307 99.9522 95.5247 109.479 96.0003 116.443C96.0093 116.588 96.0214 116.732 96.0274 116.874C96.0394 117.01 96.0485 117.145 96.0575 117.281C96.0695 117.47 96.0816 117.657 96.0936 117.841C96.0996 117.934 96.1057 118.028 96.1117 118.121C96.1147 118.184 96.1207 118.244 96.1237 118.308C96.1328 118.452 96.1418 118.6 96.1508 118.741C96.1689 119.058 96.1869 119.368 96.205 119.666C96.211 119.763 96.217 119.859 96.2231 119.952C96.2772 120.937 96.3224 121.802 96.3615 122.51C96.3645 122.597 96.3706 122.678 96.3736 122.763C96.3736 122.784 96.3766 122.802 96.3766 122.82C96.3796 122.88 96.3826 122.94 96.3856 123.001C96.3916 123.1 96.3976 123.196 96.4007 123.287C96.4067 123.404 96.4127 123.516 96.4157 123.618C96.4217 123.702 96.4247 123.787 96.4278 123.862C96.4308 123.922 96.4338 123.976 96.4368 124.028C96.4368 124.055 96.4398 124.085 96.4398 124.112C96.4428 124.169 96.4458 124.217 96.4458 124.263C96.4488 124.323 96.4518 124.374 96.4548 124.416C101.042 121.961 105.311 118.988 109.182 115.576C115.729 109.808 121.145 102.784 125.055 94.8859C124.591 92.1509 124.504 87.428 124.567 82.7051C124.561 82.5455 124.561 82.3798 124.564 82.2141Z" fill="white"/>
<path fill-rule="evenodd" clip-rule="evenodd" d="M125.049 94.8902C121.135 102.791 115.72 109.812 109.176 115.58C105.305 118.99 101.033 121.963 96.4487 124.421C96.4457 124.378 96.4427 124.327 96.4397 124.267C96.4397 124.222 96.4366 124.174 96.4336 124.116C96.4336 124.089 96.4306 124.062 96.4306 124.032C96.4276 123.981 96.4246 123.927 96.4216 123.866C96.4186 123.791 96.4156 123.71 96.4096 123.622C96.4065 123.52 96.4005 123.408 96.3945 123.291C96.3915 123.201 96.3855 123.104 96.3794 123.005C96.3764 122.945 96.3734 122.884 96.3704 122.824C96.3704 122.806 96.3674 122.788 96.3674 122.767C96.3644 122.683 96.3584 122.601 96.3554 122.514C96.3192 121.803 96.2711 120.942 96.2169 119.957C96.2109 119.863 96.2049 119.767 96.1988 119.67C96.1808 119.372 96.1627 119.065 96.1447 118.746C96.1326 118.601 96.1236 118.457 96.1176 118.312C96.1146 118.249 96.1085 118.189 96.1055 118.125C96.0995 118.032 96.0935 117.939 96.0875 117.845C96.0724 117.661 96.0604 117.475 96.0513 117.285C96.0423 117.149 96.0333 117.014 96.0212 116.878C96.0122 116.734 96.0002 116.592 95.9941 116.448C100.317 113.592 104.083 110.155 107.355 106.36C116.53 95.7306 121.864 82.2787 124.952 70.7997C124.949 70.86 124.946 70.9202 124.943 70.9835C124.934 71.1311 124.928 71.2847 124.919 71.4413C124.919 71.4534 124.916 71.4624 124.919 71.4714C124.907 71.6401 124.901 71.8118 124.892 71.9925C124.883 72.1612 124.874 72.3329 124.865 72.5106V72.5377C124.856 72.7245 124.847 72.9142 124.838 73.113C124.829 73.2998 124.82 73.4895 124.811 73.6853C124.778 74.5106 124.739 75.3992 124.709 76.3299C124.697 76.6311 124.685 76.9323 124.679 77.2426C124.672 77.4082 124.666 77.5739 124.66 77.7426C124.648 78.104 124.636 78.4654 124.63 78.8359C124.606 79.61 124.591 80.3962 124.573 81.1884C124.567 81.5257 124.561 81.8631 124.555 82.2034V82.2155C124.552 82.3811 124.552 82.5468 124.549 82.7094C124.498 87.4354 124.585 92.1553 125.049 94.8902Z" fill="#ECF0F8"/>
<path fill-rule="evenodd" clip-rule="evenodd" d="M86.2348 46.3163C86.5601 46.3163 86.8222 46.5783 86.8222 46.9036V48.3133C86.8222 48.6386 86.5601 48.9006 86.2348 48.9006C85.9095 48.9006 85.6475 48.6386 85.6475 48.3133V46.9036C85.6475 46.5783 85.9125 46.3163 86.2348 46.3163Z" fill="#932F28"/>
<path opacity="0.2" fill-rule="evenodd" clip-rule="evenodd" d="M119.697 79.6832C116.883 77.388 113.782 72.2133 112.689 66.2825C111.874 66.3699 111.058 66.4572 110.245 66.5476C105.817 67.0416 101.407 67.7916 96.976 68.2856C96.8887 69.4241 96.7833 70.6289 96.684 71.9271C96.678 72.0024 96.6719 72.0777 96.6689 72.153C96.6599 72.2374 96.6569 72.3157 96.6509 72.4C96.1843 80.8429 100.739 87.611 108.424 90.9634C113.15 93.0236 116.69 95.4333 118.755 97.0237C119.733 97.7767 121.163 97.2255 121.374 96.0086C121.798 93.5839 122.28 89.9333 122.12 86.617C121.982 83.6862 121.338 81.0176 119.697 79.6832Z" fill="black"/>
<path fill-rule="evenodd" clip-rule="evenodd" d="M92.6929 51.4875C95.4292 55.0628 96.7747 57.9785 97.1781 61.0568C101.423 60.5749 105.465 59.861 109.71 59.3851C110.568 59.2887 111.425 59.1983 112.283 59.108C112.283 56.3158 112.804 53.4754 114.065 50.7796C115.188 48.376 115.847 45.7344 116.019 43.0748C115.519 35.5627 111.037 28.4994 102.091 26.8126C88.8699 24.3217 82.8344 35.0356 82.8344 35.0356C82.5695 35.4362 82.3708 35.8308 82.2354 36.2193C82.6598 37.5115 83.617 38.8037 84.8542 40.1772C84.6796 40.9302 84.5081 41.6802 84.3455 42.4151C86.54 44.9904 89.8964 47.8278 92.6929 51.4875Z" fill="#F46B64"/>
<path fill-rule="evenodd" clip-rule="evenodd" d="M119.7 76.8612C116.427 74.1986 112.77 67.6383 112.324 60.5328V60.5298C112.123 57.2889 112.586 53.9304 114.064 50.7768C115.187 48.3731 115.846 45.7316 116.018 43.0719C116.563 34.5839 112.153 25.8851 102.09 23.9905C88.8688 21.4995 82.8333 32.2134 82.8333 32.2134C81.9182 33.605 81.8039 34.9092 82.2343 36.2165C82.6588 37.5086 83.616 38.8008 84.8532 40.1743C87.0416 42.599 90.106 45.2767 92.6948 48.6623C96.7014 53.9003 97.3517 57.7196 97.147 62.7076C97.0717 64.6232 96.873 66.7046 96.6864 69.1082C96.6051 70.1504 96.5991 71.1654 96.6713 72.1534C96.6774 72.2377 96.6834 72.316 96.6894 72.4004C97.2674 79.5239 101.617 85.1745 108.429 88.1414C113.155 90.2017 116.695 92.6143 118.76 94.2017C119.739 94.9577 121.169 94.4035 121.379 93.1896C121.686 91.4426 122.02 89.0571 122.126 86.6173C122.291 82.6896 121.855 78.6203 119.7 76.8612Z" fill="#EF4423"/>
<path fill-rule="evenodd" clip-rule="evenodd" d="M112.336 89.2797C104.199 85.7346 99.4403 78.5026 100.136 69.5025C100.828 60.5025 101.746 55.7916 95.9875 48.2584C90.226 40.7253 82.1887 36.5536 85.7377 31.165C85.7377 31.165 87.8208 28.2553 90.4277 25.427C85.1056 27.924 83.6878 32.2162 83.6878 32.2162C80.2712 37.403 88.0074 41.415 93.5523 48.6651C99.0971 55.9151 98.2121 60.4483 97.5438 69.1079C96.8756 77.7706 101.454 84.7285 109.287 88.1412C114.013 90.2014 117.553 92.6141 119.618 94.2015C120.169 94.6262 120.003 94.6382 120.542 94.349C118.353 92.8219 116.147 90.9394 112.336 89.2797Z" fill="#FF867D"/>
<path fill-rule="evenodd" clip-rule="evenodd" d="M111.478 89.28C103.341 85.7348 98.5819 78.5029 99.2772 69.5028C99.9696 60.5028 100.888 55.7919 95.1291 48.2587C89.3676 40.7256 81.3303 36.5538 84.8793 31.1653C84.8793 31.1653 86.7427 27.858 90.662 25.2676C85.3399 27.7646 82.8294 32.2165 82.8294 32.2165C79.4128 37.4032 87.149 41.4153 92.6939 48.6654C98.2387 55.9154 97.3537 60.4485 96.6854 69.1082C96.0172 77.7709 100.596 84.7288 108.428 88.1415C113.154 90.2017 116.694 92.6144 118.759 94.2018C119.31 94.6264 120.003 94.6385 120.541 94.3493C118.353 92.8222 115.289 90.9397 111.478 89.28Z" fill="#CC2A15"/>
<path d="M86.4602 53.2795C86.2826 53.1169 86.0297 53.0838 85.819 53.1952C85.3614 53.4301 84.3018 53.885 82.3211 54.2705C82.2579 54.2795 82.1224 54.2645 81.987 54.2404C81.984 54.2554 81.9809 54.2705 81.9779 54.2826C81.9358 54.5295 82.1525 54.7374 82.3964 54.6922C84.4192 54.2976 85.518 53.8307 86.0177 53.5747C86.132 53.5145 86.2555 53.632 86.2073 53.7494C85.4337 55.6049 84.5998 56.4392 84.2175 56.7494C84.0971 56.8488 84.052 57.0115 84.1092 57.1591L84.1935 57.3669C84.2838 57.2555 84.3711 57.1651 84.4192 57.129L84.4885 57.0838C84.937 56.7193 85.8099 55.8277 86.6077 53.9121C86.6919 53.6952 86.6378 53.4392 86.4602 53.2795Z" fill="#FF645C"/>
<path d="M36.6049 76.3886C36.5507 76.467 36.4634 76.5031 36.3761 76.5031C36.3159 76.5031 36.2557 76.485 36.2045 76.4489L27.9023 70.2712L28.3117 69.8615L36.5477 75.988C36.6741 76.0814 36.7012 76.2621 36.6049 76.3886Z" fill="#F7827F"/>
<path opacity="0.5" fill-rule="evenodd" clip-rule="evenodd" d="M41.2408 73.1815L40.3347 72.6273C39.7176 73.2026 39.0975 73.7719 38.4774 74.3472L38.6309 74.4677L38.4564 74.3683C37.2011 75.5279 35.9549 76.6966 34.7628 77.9195C34.0163 78.6846 33.2908 79.4677 32.5684 80.2599L34.6906 82.043L41.9723 88.8593L47.1408 85.8021L43.0891 75.1303C42.8182 74.4376 41.879 73.5701 41.2408 73.1815Z" fill="url(#paint3_linear)"/>
</g>
<defs>
<linearGradient id="paint0_linear" x1="0.00126429" y1="65.242" x2="129.441" y2="65.242" gradientUnits="userSpaceOnUse">
<stop stop-color="#6282CD"/>
<stop offset="1" stop-color="#51C1C3"/>
</linearGradient>
<linearGradient id="paint1_linear" x1="47.5515" y1="86.9925" x2="47.5515" y2="66.8673" gradientUnits="userSpaceOnUse">
<stop stop-color="white" stop-opacity="0"/>
<stop offset="1" stop-color="white"/>
</linearGradient>
<linearGradient id="paint2_linear" x1="85.9246" y1="55.6182" x2="84.8927" y2="51.9113" gradientUnits="userSpaceOnUse">
<stop offset="0.2119" stop-color="white"/>
<stop offset="0.2597" stop-color="#FFF8F8"/>
<stop offset="0.331" stop-color="#FFE5E3"/>
<stop offset="0.4169" stop-color="#FFC7C2"/>
<stop offset="0.5135" stop-color="#FF9C94"/>
<stop offset="0.543" stop-color="#FF8E85"/>
</linearGradient>
<linearGradient id="paint3_linear" x1="25.7954" y1="63.6109" x2="42.0079" y2="82.4385" gradientUnits="userSpaceOnUse">
<stop stop-color="white"/>
<stop offset="1" stop-color="white" stop-opacity="0"/>
</linearGradient>
</defs>
</svg>
