<svg xmlns="http://www.w3.org/2000/svg" width="144" height="130" viewBox="0 0 144 130">
    <defs>
        <linearGradient id="lnhcu17y0a" x1="14.645%" x2="85.355%" y1="14.645%" y2="85.355%">
            <stop offset="0%" stop-color="#6282CD"/>
            <stop offset="100%" stop-color="#6282CD" stop-opacity="0"/>
        </linearGradient>
        <linearGradient id="m7ivur5pab" x1=".004%" x2="99.996%" y1="49.997%" y2="49.997%">
            <stop offset="0%" stop-color="#7CDBDB"/>
            <stop offset="97.08%" stop-color="#EC4E22"/>
        </linearGradient>
        <linearGradient id="ir4c56cz9c" x1="99.996%" x2=".004%" y1="49.999%" y2="49.999%">
            <stop offset="0%" stop-color="#7CDBDB"/>
            <stop offset="97.08%" stop-color="#EC4E22"/>
        </linearGradient>
        <linearGradient id="axishld2xd" x1=".007%" x2="99.996%" y1="49.984%" y2="49.984%">
            <stop offset="0%" stop-color="#7CDBDB"/>
            <stop offset="97.08%" stop-color="#EC4E22"/>
        </linearGradient>
    </defs>
    <g fill="none" fill-rule="evenodd">
        <g transform="translate(7)">
            <circle cx="65" cy="65" r="65" fill="#56C1C3"/>
            <circle cx="65" cy="65" r="65" fill="url(#lnhcu17y0a)"/>
        </g>
        <g>
            <g>
                <path stroke="#FFF" stroke-width=".5" d="M4.62 0h88.83c2.54 0 4.6 2.06 4.6 4.6v53.16c0 2.54-2.06 4.6-4.6 4.6H4.62c-2.54 0-4.6-2.06-4.6-4.6V4.6C.02 2.06 2.08 0 4.62 0z" opacity=".5" transform="translate(23 11) translate(0 46)"/>
                <path fill="url(#m7ivur5pab)" d="M4.62 0h88.83c2.54 0 4.6 2.06 4.6 4.6v53.16c0 2.54-2.06 4.6-4.6 4.6H4.62c-2.54 0-4.6-2.06-4.6-4.6V4.6C.02 2.06 2.08 0 4.62 0z" opacity=".5" transform="translate(23 11) translate(0 46)"/>
                <path stroke="#FFF" stroke-width=".5" d="M4.62 0h88.83c2.54 0 4.6 2.06 4.6 4.6v53.16c0 2.54-2.06 4.6-4.6 4.6H4.62c-2.54 0-4.6-2.06-4.6-4.6V4.6C.02 2.06 2.08 0 4.62 0z" transform="translate(23 11) translate(0 46)"/>
            </g>
            <path fill="url(#ir4c56cz9c)" d="M93.45 62.61H4.62c-2.54 0-4.6-2.06-4.6-4.6V4.86c0-2.54 2.06-4.6 4.6-4.6h88.83c2.54 0 4.6 2.06 4.6 4.6v53.16c0 2.53-2.06 4.59-4.6 4.59z" opacity=".5" transform="translate(23 11)"/>
            <path stroke="#FFF" stroke-width=".5" d="M93.45 62.61H4.62c-2.54 0-4.6-2.06-4.6-4.6V4.86c0-2.54 2.06-4.6 4.6-4.6h88.83c2.54 0 4.6 2.06 4.6 4.6v53.16c0 2.53-2.06 4.59-4.6 4.59z" transform="translate(23 11)"/>
        </g>
        <g>
            <path stroke="#FFF" stroke-width=".5" d="M67.49 11.803h64.7c1.13 0 2.05.98 2.05 2.19v39.32c0 1.21-.92 2.19-2.05 2.19h-64.7c-1.13 0-2.05-.98-2.05-2.19v-39.32c0-1.21.92-2.19 2.05-2.19z" transform="translate(0 15)"/>
            <path fill="#353A40" d="M5.34 4.87h133.33c2.41 0 4.37 1.96 4.37 4.37v81.52c0 2.41-1.96 4.37-4.37 4.37H5.34c-2.41 0-4.37-1.96-4.37-4.37V9.24C.96 6.83 2.92 4.87 5.34 4.87z" transform="translate(0 15)"/>
            <path stroke="#FDFEFF" stroke-width=".75" d="M5.34 4.87h133.33c2.41 0 4.37 1.96 4.37 4.37v81.52c0 2.41-1.96 4.37-4.37 4.37H5.34c-2.41 0-4.37-1.96-4.37-4.37V9.24C.96 6.83 2.92 4.87 5.34 4.87z" transform="translate(0 15)"/>
            <path fill="#579298" d="M0.4 0.8H1.4V79.35H0.4z" transform="translate(0 15) translate(53.5 11)"/>
            <g>
                <path fill="#000" fill-rule="nonzero" d="M3.49 2.993h64.7c1.13 0 2.05.98 2.05 2.19v39.32c0 1.21-.92 2.19-2.05 2.19H3.49c-1.13 0-2.05-.98-2.05-2.19V5.173c0-1.21.92-2.18 2.05-2.18z" transform="translate(0 15) translate(64 11)"/>
                <path fill="url(#axishld2xd)" d="M2.49.36h64.7c1.13 0 2.05.98 2.05 2.19v39.32c0 1.21-.92 2.19-2.05 2.19H2.49c-1.13 0-2.05-.98-2.05-2.19V2.55c0-1.21.92-2.19 2.05-2.19z" transform="translate(0 15) translate(64 11) translate(1 .443)"/>
                <g fill="#F0F3F7">
                    <path d="M68.61 1.12H.91C.61 1.12.36.87.36.57c0-.3.25-.55.55-.55h67.7c.3 0 .55.25.55.55-.01.3-.25.55-.55.55zM68.61 5.4H.91c-.3 0-.55-.25-.55-.55 0-.3.25-.55.55-.55h67.7c.3 0 .55.25.55.55-.01.31-.25.55-.55.55zM68.61 9.18H.91c-.3 0-.55-.25-.55-.55 0-.3.25-.55.55-.55h67.7c.3 0 .55.25.55.55-.01.3-.25.55-.55.55zM35.82 12.95H.91c-.3 0-.55-.25-.55-.55 0-.3.25-.55.55-.55h34.91c.3 0 .55.25.55.55 0 .31-.25.55-.55.55z" transform="translate(0 15) translate(64 11) translate(0 63)"/>
                </g>
                <path fill="#6B7480" d="M36.91 57.8H2c-.91 0-1.64-.73-1.64-1.64 0-.91.73-1.64 1.64-1.64h34.91c.91 0 1.64.73 1.64 1.64 0 .91-.73 1.64-1.64 1.64z" transform="translate(0 15) translate(64 11)"/>
            </g>
            <g transform="translate(0 15) translate(6 15)">
                <circle cx="3.92" cy="3.59" r="3.28" fill="#6B7480"/>
                <path fill="#6B7480" d="M10.75.45h5.462c.605 0 1.095.49 1.095 1.09 0 .6-.49 1.09-1.095 1.09H10.75c-.605 0-1.094-.49-1.094-1.09 0-.61.49-1.09 1.094-1.09z"/>
                <path fill="#F0F3F7" d="M40.65 5.85H10.34c-.3 0-.55-.25-.55-.55 0-.3.25-.55.55-.55h30.31c.3 0 .55.25.55.55 0 .3-.25.55-.55.55zM40.65 8.47H10.34c-.3 0-.55-.25-.55-.55 0-.3.25-.55.55-.55h30.31c.3 0 .55.25.55.55 0 .31-.25.55-.55.55z"/>
            </g>
            <g transform="translate(0 15) translate(6 35)">
                <circle cx="3.92" cy="3.54" r="3.28" fill="#6B7480"/>
                <path fill="#6B7480" d="M10.75.39h5.462c.605 0 1.095.49 1.095 1.09 0 .6-.49 1.09-1.095 1.09H10.75c-.605 0-1.094-.49-1.094-1.09 0-.6.49-1.09 1.094-1.09z"/>
                <path fill="#F0F3F7" d="M40.65 5.8H10.34c-.3 0-.55-.25-.55-.55 0-.3.25-.55.55-.55h30.31c.3 0 .55.25.55.55 0 .3-.25.55-.55.55zM40.65 8.42H10.34c-.3 0-.55-.25-.55-.55 0-.3.25-.55.55-.55h30.31c.3 0 .55.25.55.55 0 .3-.25.55-.55.55z"/>
            </g>
            <g transform="translate(0 15) translate(6 55)">
                <circle cx="3.92" cy="3.48" r="3.28" fill="#6B7480"/>
                <path fill="#6B7480" d="M10.75.34h5.462c.605 0 1.095.49 1.095 1.09 0 .6-.49 1.09-1.095 1.09H10.75c-.605 0-1.094-.49-1.094-1.09 0-.6.49-1.09 1.094-1.09z"/>
                <path fill="#F0F3F7" d="M40.65 5.74H10.34c-.3 0-.55-.25-.55-.55 0-.3.25-.55.55-.55h30.31c.3 0 .55.25.55.55 0 .31-.25.55-.55.55zM40.65 8.37H10.34c-.3 0-.55-.25-.55-.55 0-.3.25-.55.55-.55h30.31c.3 0 .55.25.55.55 0 .3-.25.55-.55.55z"/>
            </g>
            <g transform="translate(0 15) translate(6 73)">
                <circle cx="3.92" cy="4.26" r="3.28" fill="#6B7480"/>
                <path fill="#6B7480" d="M10.75 1.12h5.462c.605 0 1.095.49 1.095 1.09 0 .6-.49 1.09-1.095 1.09H10.75c-.605 0-1.094-.49-1.094-1.09 0-.6.49-1.09 1.094-1.09z"/>
                <path fill="#F0F3F7" d="M40.65 6.52H10.34c-.3 0-.55-.25-.55-.55 0-.3.25-.55.55-.55h30.31c.3 0 .55.25.55.55 0 .31-.25.55-.55.55zM40.65 9.15H10.34c-.3 0-.55-.25-.55-.55 0-.3.25-.55.55-.55h30.31c.3 0 .55.25.55.55 0 .3-.25.55-.55.55z"/>
            </g>
            <g transform="translate(0 15) translate(56)">
                <circle cx="21.25" cy="21.08" r="20.86" stroke="#FFF" stroke-width=".636"/>
                <ellipse cx="21.25" cy="21.08" fill="#FFF" opacity=".2" rx="13.91" ry="13.79"/>
                <path stroke="#FFF" stroke-width=".5" d="M50.52 60.66L82.25 17.49M50.52 67.19L82.25 24.02"/>
                <path fill="#FFF" d="M50.52 73.02L82.25 29.84 82.25 73.02z" opacity=".2"/>
            </g>
            <g>
                <path fill="#000" fill-rule="nonzero" d="M.69 3.72V16.7c0 1.37 1.53 2.19 2.67 1.43l9.17-6.1c.99-.66 1.03-2.09.08-2.8L3.44 2.35C2.31 1.49.69 2.3.69 3.72z" opacity=".2" transform="translate(0 15) translate(94 25)"/>
                <path fill="#FFF" d="M.69 2.16v12.98c0 1.37 1.53 2.19 2.67 1.43l9.17-6.1c.99-.66 1.03-2.09.08-2.8L3.44.79C2.31-.07.69.74.69 2.16z" transform="translate(0 15) translate(94 25)"/>
            </g>
        </g>
    </g>
</svg>
