<svg xmlns="http://www.w3.org/2000/svg" width="156" height="130" viewBox="0 0 156 130">
    <defs>
        <linearGradient id="ek3sliwsna" x1="14.645%" x2="85.355%" y1="14.645%" y2="85.355%">
            <stop offset="0%" stop-color="#6282CD"/>
            <stop offset="100%" stop-color="#6282CD" stop-opacity="0"/>
        </linearGradient>
        <linearGradient id="dt2zb9vgcb" x1="50.013%" x2="50.013%" y1="99.983%" y2="-.013%">
            <stop offset="0%" stop-color="#B3F0EF"/>
            <stop offset="100%" stop-color="#6CA7E0"/>
        </linearGradient>
        <linearGradient id="b7nz3vsl3c" x1="50.001%" x2="50.001%" y1="5.579%" y2="96.775%">
            <stop offset="0%" stop-color="#B3F0EF"/>
            <stop offset="100%" stop-color="#6CA7E0"/>
        </linearGradient>
        <linearGradient id="8iiag0icrd" x1="49.997%" x2="49.997%" y1="100.003%" y2=".003%">
            <stop offset="0%" stop-color="#EC4E22"/>
            <stop offset="42.72%" stop-color="#EC5024"/>
            <stop offset="60.14%" stop-color="#EC552B"/>
            <stop offset="72.94%" stop-color="#ED5F37"/>
            <stop offset="83.49%" stop-color="#EE6E49"/>
            <stop offset="92.54%" stop-color="#EF805F"/>
            <stop offset="99.63%" stop-color="#F09377"/>
        </linearGradient>
    </defs>
    <g fill="none" fill-rule="evenodd">
        <g transform="translate(4)">
            <circle cx="65" cy="65" r="65" fill="#56C1C3"/>
            <circle cx="65" cy="65" r="65" fill="url(#ek3sliwsna)"/>
        </g>
        <g>
            <path fill="#8AA4E1" stroke="#FFF" stroke-width=".75" d="M42.97 13.44h52c2.21 0 4 1.79 4 4v69c0 2.21-1.79 4-4 4h-52c-2.21 0-4-1.79-4-4v-69c0-2.2 1.79-4 4-4z" transform="translate(0 20)"/>
            <path fill="#FFF" d="M84.8 7.56h52c2.21 0 4 1.79 4 4v69c0 2.21-1.79 4-4 4h-52c-2.21 0-4-1.79-4-4v-69c0-2.21 1.79-4 4-4z" transform="translate(0 20)"/>
            <path fill="#EC4E22" d="M135.65 7.56h-52c-2.21 0-4 1.79-4 4v69c0 .7.18 1.37.5 1.94.69 1.23 2 2.06 3.5 2.06h52c2.21 0 4-1.79 4-4v-69c0-2.21-1.79-4-4-4z" transform="translate(0 20)"/>
            <path fill="#000" fill-rule="nonzero" d="M123.53 7.56H83.65c-2.21 0-4 1.79-4 4v69c0 .7.18 1.37.5 1.94h39.88c2.21 0 4-1.79 4-4v-69c0-.7-.18-1.37-.5-1.94z" opacity=".2" transform="translate(0 20)"/>
            <g>
                <path fill="#7CDBDB" stroke="#FFF" stroke-width=".75" d="M4.03.44h52c2.21 0 4 1.79 4 4v69c0 2.21-1.79 4-4 4h-52c-2.21 0-4-1.79-4-4v-69c0-2.2 1.79-4 4-4z" transform="translate(0 20) translate(59 1)"/>
                <path fill="#7E8DAB" d="M54.58 70.92h-9.96c-1.1 0-1.99-.89-1.99-1.99s.89-1.99 1.99-1.99h9.96c1.1 0 1.99.89 1.99 1.99-.01 1.1-.9 1.99-1.99 1.99z" transform="translate(0 20) translate(59 1)"/>
                <path fill="#FFF" d="M7.03 20.44h48c1.1 0 2 .9 2 2v39c0 1.1-.9 2-2 2h-48c-1.1 0-2-.9-2-2v-42c0-1.1.9 1 2 1z" transform="translate(0 20) translate(59 1)"/>
                <path fill="url(#dt2zb9vgcb)" stroke="#FDFFFF" stroke-width=".5" d="M53.73 28.19h-22.2c-1.56 0-2.83-1.27-2.83-2.83V7.33c0-1.56 1.27-2.83 2.83-2.83h22.2c1.56 0 2.83 1.27 2.83 2.83v18.03c0 1.56-1.26 2.83-2.83 2.83z" transform="translate(0 20) translate(59 1)"/>
            </g>
            <path fill="#000" fill-rule="nonzero" d="M99.38 18.94H79.65v61.62c0 2.21 1.79 4 4 4h19.73V22.94c0-2.2-1.79-4-4-4z" opacity=".2" transform="translate(0 20)"/>
            <g transform="translate(0 20) translate(38 13)">
                <path fill="#8AA4E1" stroke="#FFF" stroke-width=".75" d="M4.97.44h52c2.21 0 4 1.79 4 4v69c0 2.21-1.79 4-4 4h-52c-2.21 0-4-1.79-4-4v-69c0-2.2 1.79-4 4-4z"/>
                <path fill="#FFF" d="M6.97 4.44h48c1.1 0 2 .9 2 2v39c0 1.1-.9 2-2 2h-48c-1.1 0-2-.9-2-2v-39c0-1.1.89-2 2-2z"/>
                <circle cx="48.66" cy="17.07" r="6.7" fill="#91E8E3"/>
                <path fill="#B3F0EF" d="M24.97 43.34h29.2c.78 0 1.35-.62 1.15-1.26L51 28.41c-.28-.9-1.74-1.02-2.22-.18l-3.1 5.34c-.45.78-1.78.74-2.17-.06l-8.99-18.39c-.43-.89-1.96-.8-2.26.12l-8.44 26.83c-.2.64.37 1.27 1.15 1.27z"/>
            </g>
            <g fill="#FFF">
                <path d="M41.79 1.94h-41c-.28 0-.5-.22-.5-.5s.22-.5.5-.5h41c.27 0 .5.22.5.5s-.22.5-.5.5zM41.79 5.94h-41c-.28 0-.5-.22-.5-.5s.22-.5.5-.5h41c.27 0 .5.22.5.5s-.22.5-.5.5zM41.79 9.94h-41c-.28 0-.5-.22-.5-.5s.22-.5.5-.5h41c.27 0 .5.22.5.5s-.22.5-.5.5z" transform="translate(0 20) translate(48 69)"/>
            </g>
            <path fill="#000" fill-rule="nonzero" d="M29.58 6.94h52c2.21 0 4 1.79 4 4v69c0 2.21-1.79 4-4 4h-52c-2.21 0-4-1.79-4-4v-69c0-2.2 1.79-4 4-4z" opacity=".2" transform="translate(0 20)"/>
            <g>
                <path fill="#E7F8FD" stroke="#FFF" stroke-width=".75" d="M4.29.94h52c2.21 0 4 1.79 4 4v69c0 2.21-1.79 4-4 4h-52c-2.21 0-4-1.79-4-4v-69c0-2.2 1.79-4 4-4z" transform="translate(0 20) translate(21)"/>
                <path fill="#7E8DAB" d="M4.29 43.94h52c.55 0 1 .45 1 1s-.45 1-1 1h-52c-.55 0-1-.45-1-1s.45-1 1-1z" transform="translate(0 20) translate(21)"/>
                <path fill="url(#b7nz3vsl3c)" stroke="#FDFFFF" stroke-width=".5" d="M6.29 4.94h48c1.66 0 3 1.34 3 3v28c0 1.66-1.34 3-3 3h-48c-1.66 0-3-1.34-3-3v-28c0-1.65 1.34-3 3-3z" transform="translate(0 20) translate(21)"/>
                <path fill="#AFC2E0" d="M56.79 50.94h-53c-.28 0-.5-.22-.5-.5s.22-.5.5-.5h53c.27 0 .5.22.5.5s-.22.5-.5.5zM56.79 54.94h-53c-.28 0-.5-.22-.5-.5s.22-.5.5-.5h53c.27 0 .5.22.5.5s-.22.5-.5.5zM56.79 58.94h-53c-.28 0-.5-.22-.5-.5s.22-.5.5-.5h53c.27 0 .5.22.5.5s-.22.5-.5.5z" transform="translate(0 20) translate(21)"/>
                <path fill="#EC4E22" d="M56.79 68.94h-53c-.28 0-.5-.22-.5-.5s.22-.5.5-.5h53c.27 0 .5.22.5.5s-.22.5-.5.5z" transform="translate(0 20) translate(21)"/>
            </g>
            <path fill="#000" fill-rule="nonzero" d="M60.45 11.79H38.96v74.65c0 .88.28 1.69.77 2.35h20.72c2.21 0 4-1.79 4-4v-69c0-2.21-1.79-4-4-4z" opacity=".2" transform="translate(0 20)"/>
            <path fill="#FFF" d="M5.78 8.56h52c2.21 0 4 1.79 4 4v69c0 2.21-1.79 4-4 4h-52c-2.21 0-4-1.79-4-4v-69c0-2.21 1.79-4 4-4z" transform="translate(0 20)"/>
            <path fill="url(#8iiag0icrd)" d="M4.46 8.56h52c2.21 0 4 1.79 4 4v69c0 2.21-1.79 4-4 4h-52c-2.21 0-4-1.79-4-4v-69c0-2.21 1.79-4 4-4z" transform="translate(0 20)"/>
            <path stroke="#99250A" stroke-linecap="round" stroke-linejoin="round" stroke-width="1.5" d="M22.51 44.52l16.01-8.38c-2.12-4.83-7.42-6.87-11.84-4.56-4.42 2.31-6.28 8.11-4.17 12.94 1.49 3.39 4.54 5.41 7.76 5.51 0 0 5.05 1.03 9.78-3.39 4.07-3.8 6.04-10.37 1.91-16.2-3.79-6.12-11.47-7.84-17.8-4.52-7.28 3.81-10.36 13.36-6.87 21.32 2.47 5.65 7.59 8.98 12.95 9.08l-.05-.01s8.19.69 12.47-4.42" transform="translate(0 20)"/>
            <path stroke="#FFF" stroke-linecap="round" stroke-linejoin="round" stroke-width="2.869" d="M15.99 65.07L42.14 65.07" transform="translate(0 20)"/>
            <path stroke="#FFF" stroke-linecap="round" stroke-linejoin="round" stroke-width=".956" d="M18.28 71.17L39.85 71.17" transform="translate(0 20)"/>
            <path fill="#215264" d="M155.54 40.56c-10.96-6.06-16.04 6.06-27 0v8c10.96 6.06 16.04-6.06 27 0-1.2-3.6-5.27-5.49-5.27-5.49s1.99-2 5.27-2.51z" transform="translate(0 20)"/>
            <path stroke="#FFF" stroke-linecap="round" stroke-linejoin="round" stroke-width="1.5" d="M21.51 44.52l16.01-8.38c-2.12-4.83-7.42-6.87-11.84-4.56-4.42 2.31-6.28 8.11-4.17 12.94 1.49 3.39 4.54 5.41 7.76 5.51 0 0 5.05 1.03 9.78-3.39 4.07-3.8 6.04-10.37 1.91-16.2-3.79-6.12-11.47-7.84-17.8-4.52-7.28 3.81-10.36 13.36-6.87 21.32 2.47 5.65 7.59 8.98 12.95 9.08l-.05-.01s8.19.69 12.47-4.42" transform="translate(0 20)"/>
        </g>
    </g>
</svg>
