<svg xmlns="http://www.w3.org/2000/svg" width="178" height="130" viewBox="0 0 178 130">
    <defs>
        <linearGradient id="em4xxihlia" x1="14.645%" x2="85.355%" y1="14.645%" y2="85.355%">
            <stop offset="0%" stop-color="#6282CD"/>
            <stop offset="100%" stop-color="#6282CD" stop-opacity="0"/>
        </linearGradient>
        <linearGradient id="tg9xqbw5nb" x1=".006%" x2="100.006%" y1="50.007%" y2="50.007%">
            <stop offset="0%" stop-color="#3574D3"/>
            <stop offset="100%" stop-color="#3574D3" stop-opacity="0"/>
        </linearGradient>
        <linearGradient id="kn41nn9ddc" x1=".006%" x2="100.006%" y1="50.002%" y2="50.002%">
            <stop offset="0%" stop-color="#ABE7ED" stop-opacity="0"/>
            <stop offset="100%" stop-color="#B3F0EF"/>
        </linearGradient>
        <linearGradient id="8a52p1tqid" x1=".003%" x2="200.729%" y1="50.001%" y2="50.001%">
            <stop offset=".039%" stop-color="#173D4E"/>
            <stop offset="100%" stop-color="#2B6778"/>
        </linearGradient>
        <linearGradient id="1dz00op0ue" x1=".005%" x2="100.005%" y1="50.003%" y2="50.003%">
            <stop offset="0%" stop-color="#B3F0EF"/>
            <stop offset="100%" stop-color="#6CA7E0"/>
        </linearGradient>
    </defs>
    <g fill="none" fill-rule="evenodd">
        <g transform="translate(24)">
            <circle cx="65" cy="65" r="65" fill="#56C1C3"/>
            <circle cx="65" cy="65" r="65" fill="url(#em4xxihlia)"/>
        </g>
        <g fill-rule="nonzero">
            <path fill="url(#tg9xqbw5nb)" d="M102.59 51.52h70.66c2.58 0 4.67 2.09 4.67 4.67v50.66c0 2.58-2.09 4.67-4.67 4.67h-70.66c-2.58 0-4.67-2.09-4.67-4.67V56.19c0-2.58 2.09-4.67 4.67-4.67z" transform="translate(0 9)"/>
            <path fill="url(#kn41nn9ddc)" d="M75.41 60.48H4.74c-2.58 0-4.67-2.09-4.67-4.67V5.14C.07 2.56 2.16.47 4.74.47H75.4c2.58 0 4.67 2.09 4.67 4.67V55.8c.01 2.59-2.08 4.68-4.66 4.68z" transform="translate(0 9)"/>
        </g>
        <g>
            <path fill="#EC4E22" d="M7 2.01h134.004c2.212 0 4 1.793 4 4.012v82.01c0 2.218-1.788 4.01-4 4.01H7c-2.212 0-4-1.792-4-4.01V6.022C3 3.803 4.788 2.01 7 2.01z" transform="translate(15 18)"/>
            <path fill="url(#8a52p1tqid)" d="M4.315.301H99.74c2.207 0 3.994 1.786 3.994 3.994v55.991c0 2.208-1.787 3.994-3.994 3.994H4.315C2.107 64.28.32 62.494.32 60.286V4.295C.321 2.087 2.107.3 4.315.3z" transform="translate(15 18) translate(7.47 18.341)"/>
            <path fill="#7CDBDB" d="M15.89 25.71h29.15c.75 0 1.35.6 1.35 1.35 0 .75-.6 1.35-1.35 1.35H15.89c-.75 0-1.35-.6-1.35-1.35 0-.74.6-1.35 1.35-1.35z" transform="translate(15 18)"/>
            <path fill="#FFF" d="M15.26 33.365h15.73c.4 0 .72.325.72.723 0 .398-.32.723-.72.723H15.26c-.4 0-.72-.325-.72-.723 0-.398.32-.723.72-.723zM15.28 38.175h15.68c.41 0 .75.336.75.746 0 .415-.33.745-.75.745H15.28c-.41 0-.75-.336-.75-.745.01-.41.34-.746.75-.746z" transform="translate(15 18)"/>
            <path fill="#030D11" fill-rule="nonzero" d="M82.56 30.33c-12.15 0-22 9.85-22 22 0 4.57 1.4 8.82 3.78 12.34l-11.35 8.46H14.47c-.55 0-1 .45-1 1s.45 1 1 1h38.86c.22 0 .42-.07.6-.2l11.62-8.66c4.03 4.92 10.16 8.06 17.02 8.06 12.15 0 22-9.85 22-22s-9.86-22-22.01-22z" transform="translate(15 18)"/>
            <g transform="translate(15 18) translate(14 27)">
                <circle cx="22.96" cy="22.93" r="22" fill="#FFF" transform="translate(45.661 .285)"/>
                <path stroke="#FFF" stroke-linecap="round" stroke-linejoin="round" stroke-width="2" d="M68.63 23.22L39.4 45.02 0.54 45.02"/>
            </g>
            <path fill="#7CDBDB" d="M16.53 48.242h22.045c1.107 0 1.999.895 1.999 2v11.786c0 1.106-.892 2.001-1.999 2.001H16.531c-1.107 0-1.999-.895-1.999-2V50.241c0-1.105.901-2 1.999-2z" transform="translate(15 18)"/>
            <path fill="#173D4E" d="M20.01 52.33h14.78c.63 0 1.14.51 1.14 1.14 0 .63-.51 1.14-1.14 1.14H20.01c-.63 0-1.14-.51-1.14-1.14 0-.63.51-1.14 1.14-1.14zM20.01 58h14.78c.63 0 1.14.51 1.14 1.14 0 .63-.51 1.14-1.14 1.14H20.01c-.63 0-1.14-.51-1.14-1.14 0-.63.51-1.14 1.14-1.14z" transform="translate(15 18)"/>
            <path fill="#FFF" d="M119.131 39.54h17.996c.557 0 .998.447.998 1.003 0 .556-.453 1.003-.998 1.003H119.13c-.557 0-.998-.447-.998-1.003 0-.556.452-1.003.998-1.003zM129.135 44.62h8.004c.554 0 1 .448 1 1.004s-.446 1.003-1 1.003h-8.004c-.555 0-1-.447-1-1.003 0-.556.445-1.003 1-1.003z" transform="translate(15 18)"/>
            <path fill="#EC4E22" d="M82.63 49.937l-19.7-9.8c2.52-5.05 6.93-9 12.3-10.92l7.4 20.72z" transform="translate(15 18)"/>
            <path fill="#EC4E22" d="M82.63 49.937l-19.7-9.8c2.52-5.05 6.93-9 12.3-10.92l7.4 20.72z" transform="translate(15 18)"/>
            <path stroke="#FFF" d="M7.79 14.76l6.86-5.61c1.08-.88 2.63-.85 3.67.07l4.64 4.1c.96.85 2.38.95 3.45.23l2.82-1.88c.47-.31 1.01-.48 1.57-.48h14.11" transform="translate(15 18)"/>
            <path stroke="#FFF" stroke-width="1.003" d="M11.784 18.642h95.426c2.208 0 3.994 1.786 3.994 3.994v55.991c0 2.208-1.786 3.994-3.994 3.994H11.784c-2.207 0-3.994-1.786-3.994-3.994V22.636c0-2.208 1.787-3.994 3.994-3.994z" transform="translate(15 18)"/>
            <g stroke-width=".5">
                <path fill="url(#1dz00op0ue)" stroke="#FDFFFF" d="M52.72 4.36v23.89c0 2.21-1.79 4-4 4H4.18c-2.21 0-4-1.79-4-4V4.36c0-2.21 1.79-4 4-4h44.54c2.21 0 4 1.79 4 4z" transform="translate(15 18) translate(88 54)"/>
                <path stroke="#FFF" d="M4.19.36h44.54c2.21 0 4 1.79 4 4v23.89c0 2.21-1.79 4-4 4H4.19c-2.21 0-4-1.79-4-4V4.36c0-2.21 1.79-4 4-4z" transform="translate(15 18) translate(88 54)"/>
            </g>
            <path stroke="#FFF" stroke-width="2.13" d="M7 2.01h134.004c2.212 0 4 1.793 4 4.012v82.01c0 2.218-1.788 4.01-4 4.01H7c-2.212 0-4-1.792-4-4.01V6.022C3 3.803 4.788 2.01 7 2.01z" transform="translate(15 18)"/>
            <g transform="translate(15 18) translate(95 47)">
                <path fill="#6246BB" d="M11.08 38.76L10.95 38.93 0.52 38.93 5.34 31.14 5.35 31.12z"/>
                <path fill="#7E64D0" d="M35.08 38.93H8.13l-2.79-7.78-.01-.02s6.38-3.2 12.5-4.95l15.74 2.05h.05l.05.01.01.06 1.4 10.63z"/>
                <ellipse cx="17.57" cy="28.371" fill="#6246BB" rx="6" ry="3.14" transform="rotate(-13.544 17.57 28.37)"/>
                <path fill="#DD604B" d="M13.35 24.45l.22 4.62c.02.44.32.81.74.92 1.51.38 5.12.86 7.72-2.24.19-.23.26-.54.2-.83l-1.28-6.47c-.14-.69-.93-1.03-1.52-.63l-5.65 3.76c-.28.19-.45.52-.43.87z"/>
                <path fill="#1C283A" d="M12.08 13.86S5.84 12.3 6.43 8.02c.59-4.29 6.03-7.99 6.9-6.98.87 1-2.36 2.64-.71 5.05 1.63 2.39 1.7 5.04-.54 7.77z"/>
                <path fill="#FF9A83" d="M24.16 14.45l-3.79 9.53c-.37.94-1.25 1.56-2.25 1.61-3.5.13-5.92-.4-7.42-.91-1.15-.4-1.83-1.56-1.64-2.77.17-1.08.38-2.19.6-3.29.37-1.83.79-3.62 1.17-5.13.26-.97.48-1.84.67-2.53.29-1.06 1.24-1.83 2.35-1.85 4.35-.09 7.44 1.19 9.23 2.23 1.08.62 1.54 1.95 1.08 3.11z"/>
                <path fill="#FFCFC7" d="M12.232 19.873l5.24.9c.26.04.4.33.28.56-.42.81-1.49 3.04-3.55 2.65-1.98-.37-2.36-2.83-2.42-3.7-.02-.25.2-.45.45-.41z"/>
                <path fill="#2F3D54" d="M21.58 20.54s-.77-3.54.05-6.15c.32-.93-.08-1.95-.94-2.41-1.81-1-5.07-2.25-9.13-1.76 0 0 .24-7.74 5.29-7.02 0 0 1.2.15.4 1.44-.14.28-.14.6.01.88.15.27.41.46.72.5 2.9.39 8.41 1.47 9.16 4.41 0 0 .08 1.33-.34 2.18-.09.11-.11.26-.08.39.04.14.13.25.26.3.38.13.78.48.8 1.25.03 1.45-4.03 4.94-6.2 5.99z"/>
                <ellipse cx="22.544" cy="19.494" fill="#DD604B" rx="2.24" ry="1.28" transform="rotate(-59.999 22.544 19.494)"/>
                <path fill="#9E291D" d="M23.3 18.53c-.33-.19-.86.12-1.19.7.14-.09.28-.12.39-.05.2.11.21.46.03.77-.17.29-.45.44-.65.36.04.14.09.27.2.33.33.19.87-.13 1.2-.71.35-.59.35-1.21.02-1.4z"/>
                <path fill="#CE4532" d="M15.29 16.39c0 1.72-1.5 3.11-3.33 3.11-.89 0-1.72-.33-2.31-.88.37-1.83.79-3.62 1.17-5.13.35-.12.74-.19 1.15-.19 1.82-.01 3.32 1.38 3.32 3.09z"/>
                <ellipse cx="3.39" cy="3.87" fill="#CE4532" rx="3.33" ry="3.1" transform="translate(15.832 13.972)"/>
                <circle cx="12.13" cy="15.9" r="3.05" fill="#7CDBDB"/>
                <circle cx="12.13" cy="15.9" r="2.44" fill="#2F3D54"/>
                <circle cx="3.59" cy="3.38" r="3.05" fill="#7CDBDB" transform="translate(15.832 13.972)"/>
                <circle cx="2.59" cy="3.38" r="2.44" fill="#2F3D54" transform="translate(16.832 13.972)"/>
                <circle cx=".937" cy=".902" r="1" fill="#F9FAFF" transform="translate(18.172 15.71)"/>
                <circle cx=".595" cy=".547" r="1" fill="#F9FAFF" transform="translate(11.354 14.355)"/>
                <path d="M34.39 22.98L34.35 23.42"/>
                <path fill="#8C2C1F" d="M12.232 19.873l5.24.9c.26.04.4.33.28.56-.42.81-1.49 2.33-3.55 1.94-1.98-.37-2.36-2.12-2.42-2.99-.02-.25.2-.45.45-.41z"/>
                <path fill="#8C2C1F" d="M12.232 19.873l5.24.9c.26.04.4.33.28.56-.42.81-1.49 2.33-3.55 1.94-1.98-.37-2.36-2.12-2.42-2.99-.02-.25.2-.45.45-.41z"/>
                <path fill="#F9FAFF" d="M12.811 20.397l3.952.647s-.404 1.17-2.175.848c-1.705-.305-1.777-1.495-1.777-1.495z"/>
                <path fill="#6246BB" d="M41.85 38.93H30.86c.05-6.59 2.47-10.34 2.7-10.71h.01c0-.01.01-.02.01-.02l.02.02c.01.02.04.05.06.07 3.46 4.05 6.25 7.85 8.19 10.64z"/>
                <path stroke="#CE4532" stroke-linecap="round" stroke-linejoin="round" d="M15.97 15.26L15.05 19.19"/>
            </g>
        </g>
    </g>
</svg>
